<svg id="圖層_1" data-name="圖層 1" xmlns="http://www.w3.org/2000/svg" xmlns:xlink="http://www.w3.org/1999/xlink" viewBox="0 0 702 702"><defs><style>.cls-1{fill:#fff;}.cls-2{fill:url(#linear-gradient);}</style><linearGradient id="linear-gradient" x1="-1035.7" y1="824.72" x2="-1034.91" y2="824.72" gradientTransform="matrix(213.14, -11.72, -18.2, -199.04, 236053.29, 152516.75)" gradientUnits="userSpaceOnUse"><stop offset="0" stop-color="#6cc291"/><stop offset="1" stop-color="#005e62"/></linearGradient></defs><title>rust-taiwan</title><path d="M696.74,341.65l-32-18.42q-.29-3.19-.62-6.37l27.78-24.42a10.59,10.59,0,0,0-3.59-18l-34.93-11.82c-.6-2.06-1.23-4.13-1.87-6.19L674,227.11a10.59,10.59,0,0,0-7-16.94l-36.57-4.78c-1-1.9-2-3.8-3-5.68l16.32-33.17a10.59,10.59,0,0,0-10.2-15.24l-36.84,2.44c-1.34-1.65-2.7-3.3-4.06-4.93l9.55-35.76a10.58,10.58,0,0,0-13-13l-35.68,9.58q-2.46-2.06-4.93-4.07l2.4-36.92A10.58,10.58,0,0,0,535.66,58.5L502.58,74.82c-1.88-1-3.78-2-5.68-3l-4.84-36.64a10.59,10.59,0,0,0-16.95-7L445.87,50.58c-2.06-.65-4.12-1.29-6.19-1.89l-11.88-35a10.59,10.59,0,0,0-18-3.57L385.47,37.9q-3.18-.34-6.37-.63l-18.5-32a10.59,10.59,0,0,0-18.35,0l-18.46,32q-3.94.33-7.88.77l-24.52-27.7a10.59,10.59,0,0,0-18,3.67l-11.69,35c-2.07.61-4.13,1.25-6.18,1.9L226.13,28.46a10.58,10.58,0,0,0-16.91,7.09l-4.65,36.59q-2.85,1.5-5.67,3.06L165.68,59a10.59,10.59,0,0,0-15.21,10.26L153,106.1c-1.65,1.34-3.29,2.69-4.92,4.07l-35.79-9.43a10.59,10.59,0,0,0-12.92,13l9.72,35.65q-2.05,2.44-4,4.94l-36.94-2.27A10.59,10.59,0,0,0,58,167.38l16.44,33q-1.53,2.84-3,5.7l-36.63,5a10.59,10.59,0,0,0-7,17l22.56,29.16q-1,3.09-1.86,6.19l-34.94,12a10.59,10.59,0,0,0-3.51,18L38,317.64q-.33,3.18-.6,6.36l-32,18.62A10.6,10.6,0,0,0,5.44,361l32.05,18.35q.3,3.19.64,6.37L10.4,410.17a10.59,10.59,0,0,0,3.64,18L49,439.88q.93,3.11,1.9,6.19L28.49,475.45a10.59,10.59,0,0,0,7.08,16.92l36.58,4.7q1.5,2.85,3,5.68L59,536A10.59,10.59,0,0,0,69.2,551.17L106,548.64q2,2.48,4.07,4.92l-9.47,35.78a10.59,10.59,0,0,0,13,12.93l35.65-9.66c1.64,1.36,3.29,2.72,4.94,4l-2.31,36.93a10.59,10.59,0,0,0,15.28,10.15l33-16.41q2.83,1.54,5.7,3L210.86,667a10.58,10.58,0,0,0,17,7L257,651.44c2.05.65,4.12,1.27,6.19,1.87l12,35a10.59,10.59,0,0,0,18,3.53L317.45,664c2.12.22,4.24.43,6.36.61l18.58,32a10.6,10.6,0,0,0,18.35-.05l18.39-32c2.12-.19,4.25-.4,6.36-.63L410,691.65a10.59,10.59,0,0,0,18-3.62l11.78-34.94c2.06-.6,4.12-1.24,6.18-1.89l29.36,22.43a10.59,10.59,0,0,0,16.93-7L496.92,630c1.9-1,3.8-2,5.68-3l33.18,16.29A10.59,10.59,0,0,0,551,633l-2.13-31.65,1.34-6.59c1.08-.89,2.17-1.77,3.24-2.68l35.77,9.52a10.59,10.59,0,0,0,12.95-13L592.55,553c1.37-1.63,2.73-3.28,4.06-4.93l36.93,2.35a10.59,10.59,0,0,0,10.17-15.26l-16.37-33.06c1-1.88,2-3.78,3-5.68L667,491.49a10.58,10.58,0,0,0,7-16.95l-22.49-29.22q1-3.09,1.88-6.19l35-11.92a10.59,10.59,0,0,0,3.55-18l-27.79-24.3q.33-3.18.62-6.37l32-18.54A10.6,10.6,0,0,0,696.74,341.65ZM350,64.76A20.07,20.07,0,1,1,330,84.83,20.07,20.07,0,0,1,350,64.76ZM82.25,273.05a20.07,20.07,0,1,1,20.07,20.07A20.06,20.06,0,0,1,82.25,273.05ZM196.42,585.82a20.07,20.07,0,1,1,20.07-20.07A20.07,20.07,0,0,1,196.42,585.82Zm307.93.69a20.07,20.07,0,1,1,20.07-20.07A20.07,20.07,0,0,1,504.35,586.51ZM534,528.05l-43.33-8.82a20.69,20.69,0,0,0-24.4,16.15l-9.63,47.31A255.26,255.26,0,0,1,245,582.45l-11.88-48.64a20.7,20.7,0,0,0-25-15.18l-39.68,9.69a253.82,253.82,0,0,1-72-177.43A257.18,257.18,0,0,1,98,322.16l42.32-19.41a20.69,20.69,0,0,0,10.18-27.43l-22-47.93-.1-.21A255,255,0,0,1,304.67,100.47l30.74,30.74a20.69,20.69,0,0,0,29.26,0l31.06-31.06a254.91,254.91,0,0,1,176.9,125.12,20.59,20.59,0,0,0-1.88,3.39L549.63,277a20.69,20.69,0,0,0,10.67,27.25l44,19.22a259.32,259.32,0,0,1,1.47,27.45A253.81,253.81,0,0,1,534,528.05Zm63.77-234.24a20.07,20.07,0,1,1,20.06-20.07A20.08,20.08,0,0,1,597.77,293.81Z"/><path d="M492.2,336.2c1.05,3.61-132.42,99.93-132.42,99.93s-137.44-95.46-136.39-99.07c-24.3,82.8-31.89,158.75-34,186.13l18.68-4.56a20.69,20.69,0,0,1,25,15.18L245,582.45a255.26,255.26,0,0,0,211.65.24l9.63-47.31a20.69,20.69,0,0,1,24.4-16.15l39.47,8C528.13,504.07,519.62,423.9,492.2,336.2Z"/><path d="M486.81,319.61c-.86-35.86-9-69.58-28.48-99.79a12.92,12.92,0,0,0,1.61-3.34l12.34-39.1c3.39-10.72-7.65-20.66-17.92-16.14l-37.49,16.45a12.49,12.49,0,0,0-1.66.89c-41.47-12.79-81.57-12.36-120.36.68l-.24-.13-37.45-18.21a12.79,12.79,0,0,0-18,15.29l12.25,39.69a12.71,12.71,0,0,0,1,2.42c-13.78,31.8-21.14,66.05-24,102.1q-1.48,4.66-2.9,9.3l134.2,76.72,129.93-78.05Q488.3,324,486.81,319.61Zm-210.5-37.32a9.24,9.24,0,1,1,9.24-9.24A9.24,9.24,0,0,1,276.31,282.29Zm114.48,57.29a60.4,60.4,0,0,1-20,6.63c-2.41.36-4.93.63-7.53.77a7.13,7.13,0,0,0,2-1.93l4-5.67,1.41-2,9.93-14.11c5-7.05,1.65-17.06-6.65-17.06H341.14c-8.3,0-11.12,10-5.8,17.06l10.26,13.6,1.73,2.3,4.43,5.86a7.62,7.62,0,0,0,2.12,1.93,79.67,79.67,0,0,1-8.16-.87A63.43,63.43,0,0,1,324.67,339c-17-9.61-24-25.94-16.73-39,5.83-10.47,21.41-15.22,37-16.73,4-.39,8-.56,11.89-.56a124.68,124.68,0,0,1,13.2.69c15.26,1.64,30.5,6.4,36.74,16.6C414.88,313.31,408.17,330.06,390.79,339.58Zm47.09-57.29a9.24,9.24,0,1,1,9.25-9.24A9.24,9.24,0,0,1,437.88,282.29Z"/><path class="cls-1" d="M370,283.4a124.68,124.68,0,0,0-13.2-.69c-3.85,0-7.87.17-11.89.56-15.56,1.51-31.14,6.26-37,16.73-7.26,13-.31,29.37,16.73,39a63.43,63.43,0,0,0,21.05,7.13,79.67,79.67,0,0,0,8.16.87,7.62,7.62,0,0,1-2.12-1.93l-4.43-5.86-1.73-2.3-10.26-13.6c-5.32-7.05-2.5-17.06,5.8-17.06H374c8.3,0,11.62,10,6.65,17.06L370.7,337.4l-1.41,2-4,5.67a7.13,7.13,0,0,1-2,1.93c2.6-.14,5.12-.41,7.53-.77a60.4,60.4,0,0,0,20-6.63c17.38-9.52,24.09-26.27,15.95-39.58C400.5,289.8,385.26,285,370,283.4Z"/><path class="cls-1" d="M492.2,336.2c-1.05-3.61-2.49-7.81-2.49-7.81L359.78,406.44l-134.2-76.72s-1.14,3.72-2.19,7.34,136.39,99.07,136.39,99.07S493.25,339.81,492.2,336.2Z"/><path class="cls-2" d="M432.18,358c-6.81-7.34-13-11.52-18.46-12.2-6-.75-11.13,2.74-15.22,10.95-15.49,1.11-38.35,22.58-43.18,37.65-8.3,26-21.86,25.94-35.57,65.92-24.87,23.9-16.65,34.21-15.86,49.89-3.34,13.8-11.77,20.74-.36,35.13,15.83,10.21,12.57,34.1,23,36.84,16.31,10.76,8.17,4.11,24.65,20.12,17.53,5.66,6.74,41.34,27.74,30.67-.85-18.36-1-38.32,6.33-55.44,6.56-11.93,15.77-12.46,20.91-25.36,6.7-12.77,8.93-27.28,12-41.46,2.67-19.2,7.67-30,9.16-49.41-1.22-17.57,10.52-27.68,14.71-43.78,5.79-14.78-9.27-23.18-2.53-37.59C460.88,368.05,445.49,356.43,432.18,358Z"/><path d="M393.54,412.22l32.9-25.1c20.86-15.92,50.39-13.63,63.77,6.36L493.9,399c13.29,19.89,3.81,47.22-19.06,59.76l-36.11,19.8c-18.14,9.95-40.76,4.71-51.55-11l-3-4.37c-10.84-15.79-7.15-38.36,9.36-51"/><path d="M336.63,418.4c17.48,11.58,22.9,33.85,13.29,50.23l-2.66,4.53c-9.56,16.31-31.77,22.87-50.66,14L259,469.61c-23.82-11.13-35.4-37.81-23.65-58.41l3.26-5.73c11.82-20.72,41.15-24.75,63.22-10.13l34.79,23.06"/><path d="M403.81,522.14h-7.57s0,4.06-1,5.53-1.55,2-3.72,2.19-4.25-.82-4.67-2.46-1.47-5.33-2.29-6.4a38.76,38.76,0,0,0-3.82-3.52s8.68-4.13,7.5-12.65-12.17-10.56-12.17-10.56H365.37v-.06H323.91v11.25h12.44V529.6H321.84v12.07h41.45V529.6h-9.74v-6.54h8.35a10.62,10.62,0,0,1,4.13.58,6.46,6.46,0,0,1,3.37,4c.32,1.41,1.23,5.77,1.65,7.32a11,11,0,0,0,2,4.19,19.24,19.24,0,0,0,2.12,1.93,3.63,3.63,0,0,0,2.05.55h25.18c2.39,0,1.45-19.53,1.45-19.53m-37.09-9.31c-2.85.11-9.54.09-13.17.07v-7.43h0v.27l12.78,0c3.29,0,4.86,2.5,4.85,3.55s-.52,3.41-4.51,3.56"/></svg>