<svg xmlns="http://www.w3.org/2000/svg" xmlns:xlink="http://www.w3.org/1999/xlink" viewBox="0 0 717.93 717.93"><defs><style>.cls-1{fill:#fff;}.cls-2{fill:url(#linear-gradient);}</style><linearGradient id="linear-gradient" x1="-257.43" y1="824.97" x2="-256.65" y2="824.97" gradientTransform="matrix(213.14, -11.72, -18.2, -199.04, 70185.01, 161690.95)" gradientUnits="userSpaceOnUse"><stop offset="0" stop-color="#6cc291"/><stop offset="1" stop-color="#005e62"/></linearGradient></defs><title>rust-taiwan-outline</title><g id="圖層_3" data-name="圖層 3"><path class="cls-1" d="M359.44,717.93a18.39,18.39,0,0,1-16.08-9.26l-15.73-27.09-20.55,23.54a18.57,18.57,0,0,1-31.59-6.2l-10.15-29.64L240.6,688.37a18.41,18.41,0,0,1-11.32,3.88,18.66,18.66,0,0,1-18.46-16.13l-4.18-31-28,13.9a18.39,18.39,0,0,1-8.27,2A18.74,18.74,0,0,1,156.8,655a18.38,18.38,0,0,1-5-13.87l2-31.27-30.16,8.18a19.18,19.18,0,0,1-4.92.66,18.73,18.73,0,0,1-14.7-7.28,18.46,18.46,0,0,1-3.22-16.08l8-30.29-31.18,2.14c-.44,0-.87,0-1.31,0A18.58,18.58,0,0,1,59.66,540.5l13.77-28.14-31-4A18.59,18.59,0,0,1,30,478.67l19-24.92-29.62-9.94A18.59,18.59,0,0,1,13,412.25l23.48-20.74L9.35,376a18.59,18.59,0,0,1-.11-32.2L36.32,328,12.74,307.5a18.59,18.59,0,0,1,6.17-31.6l29.63-10.19L29.42,241a18.58,18.58,0,0,1,12.2-29.79L72.68,207,58.74,179a18.59,18.59,0,0,1,16.61-26.89c.38,0,.78,0,1.17,0l31.28,1.92-8.22-30.15a18.39,18.39,0,0,1,3.15-16.15,18.47,18.47,0,0,1,19.52-6.71l30.3,8-2.18-31.17a18.43,18.43,0,0,1,4.92-14,18.73,18.73,0,0,1,13.63-6,18.45,18.45,0,0,1,8.15,1.9l28.16,13.73,3.94-31a18.66,18.66,0,0,1,18.48-16.26,18.38,18.38,0,0,1,11.21,3.81l24.95,19,9.91-29.64a18.58,18.58,0,0,1,31.54-6.43l21.66,24.46L343.21,9.3a18.59,18.59,0,0,1,32.2,0l15.67,27.13,20.6-23.5a18.59,18.59,0,0,1,31.58,6.28l10.08,29.67,24.78-19A18.43,18.43,0,0,1,489.41,26a18.68,18.68,0,0,1,18.47,16.17L512,73.23l28-13.84a18.59,18.59,0,0,1,26.78,17.88l-2,31.27,30.18-8.11a18.51,18.51,0,0,1,19.59,6.65,18.47,18.47,0,0,1,3.2,16.1l-8.1,30.28,31.19-2.07c.42,0,.84,0,1.26,0a18.59,18.59,0,0,1,16.64,26.8l-13.83,28.11,31,4.05a18.59,18.59,0,0,1,12.34,29.74l-19.05,24.88,29.61,10a18.59,18.59,0,0,1,6.31,31.58L681.53,327.2l27.09,15.59a18.59,18.59,0,0,1,0,32.2l-27.11,15.7,23.52,20.57a18.59,18.59,0,0,1-6.24,31.59L669.16,453l19.07,24.77A18.6,18.6,0,0,1,676,507.5l-31.06,4.13,13.87,28a18.59,18.59,0,0,1-16.63,26.84h0c-.4,0-.81,0-1.22,0l-31.27-2,8.15,30.17a18.42,18.42,0,0,1-3.18,16.13,18.67,18.67,0,0,1-14.72,7.32,18.42,18.42,0,0,1-4.83-.64l-30.13-8-.11.56,2.06,30.58A18.4,18.4,0,0,1,562,654.47a18.74,18.74,0,0,1-13.62,5.94,18.51,18.51,0,0,1-8.19-1.92L512,644.68l-4,31a18.66,18.66,0,0,1-18.47,16.21,18.37,18.37,0,0,1-11.25-3.83l-24.9-19-10,29.61A18.59,18.59,0,0,1,411.83,705L391.12,681.5l-15.56,27.1A18.39,18.39,0,0,1,359.44,717.93Zm152.8-155.48a12.07,12.07,0,1,0,12.06,12.06A12.08,12.08,0,0,0,512.24,562.45Zm-307.93-.69a12.07,12.07,0,1,0,12.07,12.06A12.08,12.08,0,0,0,204.31,561.76ZM113.41,335.6c-.72,7.74-1.09,15.58-1.09,23.37A245.28,245.28,0,0,0,178.9,527.52l10.89-2.66c2.73-32.3,10.93-104,33.81-182,1.06-3.65,2.22-7.43,2.22-7.43.86-2.82,1.74-5.66,2.64-8.5,3-37.67,10.66-70.64,23.22-100.64l-12.24-39.66a20.68,20.68,0,0,1,3.05-18.55,20.93,20.93,0,0,1,16.74-8.49,21.19,21.19,0,0,1,9.31,2.18l34.8,16.93a197.11,197.11,0,0,1,59.87-9.42,210,210,0,0,1,59.15,8.78L459,162a20.81,20.81,0,0,1,8.44-1.79A21.47,21.47,0,0,1,484.68,169a20.88,20.88,0,0,1,3.11,18.82L475.45,227c0,.14-.08.27-.13.4,17.29,28.39,26.25,60.81,27.34,98.91q1.29,3.84,2.53,7.66c.18.55,1.52,4.49,2.55,8,23.69,75.8,33.4,146.26,37,179.31A245.24,245.24,0,0,0,605.61,359c0-7.31-.33-14.7-1-22L565,319.62a28.73,28.73,0,0,1-14.8-37.78l21.15-48.38a249.53,249.53,0,0,0-69.25-75.39,243.41,243.41,0,0,0-95.78-41.21l-28.08,28.08a28.71,28.71,0,0,1-40.58,0L309.9,117.2a243.69,243.69,0,0,0-95.59,42,249.58,249.58,0,0,0-69,76.46l20.38,44.42a28.72,28.72,0,0,1-14.12,38Zm492.24-65.86a12.07,12.07,0,1,0,12.07,12.07A12.09,12.09,0,0,0,605.65,269.74Zm-495.45-.69a12.07,12.07,0,1,0,12.07,12.07A12.08,12.08,0,0,0,110.2,269.05ZM357.93,80.84A12.07,12.07,0,1,0,370,92.9,12.08,12.08,0,0,0,357.93,80.84Z"/><path d="M704.62,349.72l-32-18.42c-.19-2.13-.39-4.25-.62-6.37l27.79-24.42a10.6,10.6,0,0,0-3.6-18l-34.92-11.81c-.61-2.07-1.23-4.14-1.88-6.19l22.46-29.33a10.59,10.59,0,0,0-7-16.94l-36.58-4.79c-1-1.9-2-3.8-3-5.68l16.33-33.16a10.59,10.59,0,0,0-10.2-15.25l-36.85,2.44c-1.34-1.65-2.69-3.3-4.06-4.93L610,121.12a10.59,10.59,0,0,0-13-13l-35.68,9.58q-2.45-2.05-4.93-4.07l2.4-36.92a10.58,10.58,0,0,0-15.25-10.18L510.46,82.9c-1.88-1-3.77-2.05-5.68-3.05l-4.84-36.64a10.59,10.59,0,0,0-16.94-7L453.75,58.65q-3.09-1-6.18-1.89l-11.88-35a10.59,10.59,0,0,0-18-3.57L393.36,46q-3.18-.34-6.38-.63l-18.5-32a10.58,10.58,0,0,0-18.34,0l-18.47,32q-3.94.33-7.87.77l-24.53-27.7a10.59,10.59,0,0,0-18,3.67L269.62,57c-2.07.61-4.13,1.25-6.19,1.9L234,36.53a10.58,10.58,0,0,0-16.91,7.09l-4.65,36.59q-2.86,1.5-5.68,3.06l-33.22-16.2a10.59,10.59,0,0,0-15.21,10.26l2.58,36.84c-1.65,1.34-3.3,2.69-4.92,4.07l-35.79-9.43a10.6,10.6,0,0,0-12.92,13L117,157.48c-1.37,1.64-2.71,3.28-4.05,4.94L76,160.15a10.6,10.6,0,0,0-10.13,15.3l16.45,33c-1,1.89-2,3.79-3,5.7l-36.63,5a10.58,10.58,0,0,0-7,17L58.3,265.26q-1,3.09-1.86,6.2l-34.93,12a10.59,10.59,0,0,0-3.51,18l27.85,24.24q-.33,3.18-.6,6.37l-32,18.61A10.6,10.6,0,0,0,13.33,369l32.05,18.35q.28,3.19.63,6.37L18.28,418.25a10.59,10.59,0,0,0,3.64,18L56.87,448c.61,2.07,1.25,4.13,1.9,6.19L36.38,483.52a10.59,10.59,0,0,0,7.07,16.93L80,505.14q1.48,2.85,3,5.68L66.84,544a10.6,10.6,0,0,0,10.25,15.22l36.84-2.53c1.34,1.65,2.69,3.29,4.07,4.92l-9.47,35.78a10.59,10.59,0,0,0,13,12.94l35.66-9.67q2.44,2.05,4.94,4.05l-2.32,36.93a10.59,10.59,0,0,0,15.29,10.15l33-16.41c1.89,1,3.78,2,5.69,3l4.93,36.63a10.59,10.59,0,0,0,17,7l29.19-22.53q3.09,1,6.19,1.87l12,35a10.6,10.6,0,0,0,18,3.53L325.33,672q3.18.35,6.37.61l18.58,32a10.59,10.59,0,0,0,18.34,0l18.39-32q3.19-.29,6.37-.63l24.45,27.76a10.59,10.59,0,0,0,18-3.62l11.77-34.93q3.11-.92,6.19-1.89l29.35,22.43a10.6,10.6,0,0,0,16.94-7.06l4.73-36.58c1.91-1,3.8-2,5.69-3.05l33.18,16.29a10.59,10.59,0,0,0,15.23-10.22l-2.14-31.65,1.34-6.59c1.08-.89,2.17-1.77,3.24-2.67l35.77,9.51a10.59,10.59,0,0,0,12.95-13L600.43,561q2.05-2.44,4.07-4.93l36.92,2.36a10.6,10.6,0,0,0,10.17-15.27l-16.37-33.06c1-1.88,2-3.78,3-5.68l36.64-4.88a10.6,10.6,0,0,0,7-17L659.4,453.39c.64-2.06,1.27-4.12,1.87-6.19l35-11.92a10.58,10.58,0,0,0,3.55-18L672,393q.35-3.18.62-6.37l32-18.54A10.59,10.59,0,0,0,704.62,349.72ZM357.93,72.84A20.07,20.07,0,1,1,337.86,92.9,20.07,20.07,0,0,1,357.93,72.84ZM90.13,281.12a20.07,20.07,0,1,1,20.07,20.07A20.08,20.08,0,0,1,90.13,281.12ZM204.31,593.89a20.07,20.07,0,1,1,20.07-20.07A20.08,20.08,0,0,1,204.31,593.89ZM275,281.12a9.24,9.24,0,1,1,9.24,9.24A9.24,9.24,0,0,1,275,281.12Zm170.81,9.24a9.24,9.24,0,1,1,9.24-9.24A9.24,9.24,0,0,1,445.77,290.36Zm66.47,304.22a20.07,20.07,0,1,1,20.06-20.07A20.07,20.07,0,0,1,512.24,594.58Zm29.65-58.46-3.87-.79C536,512.14,527.5,432,500.08,344.27c-1.05-3.61-2.48-7.81-2.48-7.81-1-2.92-1.91-5.85-2.91-8.78-.86-35.86-9-69.58-28.48-99.79a12.46,12.46,0,0,0,1.61-3.34l12.35-39.1c3.38-10.72-7.65-20.65-17.93-16.14l-37.48,16.45a12.62,12.62,0,0,0-1.67.89c-41.47-12.79-81.56-12.36-120.35.68l-.25-.13L265,169a12.79,12.79,0,0,0-18,15.3L259.33,224a13.39,13.39,0,0,0,1,2.42c-13.77,31.8-21.13,66.05-24,102.11q-1.49,4.65-2.89,9.29s-1.14,3.72-2.19,7.34c-24.3,82.8-31.9,158.75-34,186.13l-21,5.13a254.95,254.95,0,0,1-70.38-206.16l42.32-19.41a20.69,20.69,0,0,0,10.18-27.43l-22-47.93-.1-.21A255,255,0,0,1,312.56,108.54l30.74,30.74a20.69,20.69,0,0,0,29.26,0l31.05-31.06a254.92,254.92,0,0,1,176.9,125.12,21.35,21.35,0,0,0-1.88,3.39L557.51,285a20.7,20.7,0,0,0,10.67,27.25l44,19.22A256.73,256.73,0,0,1,613.61,359,253.84,253.84,0,0,1,541.89,536.12Zm63.76-234.24a20.07,20.07,0,1,1,20.07-20.07A20.08,20.08,0,0,1,605.65,301.88Z"/></g><g id="圖層_2" data-name="圖層 2"><path d="M704.62,349.72l-32-18.42c-.19-2.13-.39-4.25-.62-6.37l27.79-24.42a10.6,10.6,0,0,0-3.6-18l-34.92-11.81c-.61-2.07-1.23-4.14-1.88-6.19l22.46-29.33a10.59,10.59,0,0,0-7-16.94l-36.58-4.79c-1-1.9-2-3.8-3-5.68l16.33-33.16a10.59,10.59,0,0,0-10.2-15.25l-36.85,2.44c-1.34-1.65-2.69-3.3-4.06-4.93L610,121.12a10.59,10.59,0,0,0-13-13l-35.68,9.58q-2.45-2.05-4.93-4.07l2.4-36.92a10.58,10.58,0,0,0-15.25-10.18L510.46,82.9c-1.88-1-3.77-2.05-5.68-3.05l-4.84-36.64a10.59,10.59,0,0,0-16.94-7L453.75,58.65q-3.09-1-6.18-1.89l-11.88-35a10.59,10.59,0,0,0-18-3.57L393.36,46q-3.18-.34-6.38-.63l-18.5-32a10.58,10.58,0,0,0-18.34,0l-18.47,32q-3.94.33-7.87.77l-24.53-27.7a10.59,10.59,0,0,0-18,3.67L269.62,57c-2.07.61-4.13,1.25-6.19,1.9L234,36.53a10.58,10.58,0,0,0-16.91,7.09l-4.65,36.59q-2.86,1.5-5.68,3.06l-33.22-16.2a10.59,10.59,0,0,0-15.21,10.26l2.58,36.84c-1.65,1.34-3.3,2.69-4.92,4.07l-35.79-9.43a10.6,10.6,0,0,0-12.92,13L117,157.48c-1.37,1.64-2.71,3.28-4.05,4.94L76,160.15a10.6,10.6,0,0,0-10.13,15.3l16.45,33c-1,1.89-2,3.79-3,5.7l-36.63,5a10.58,10.58,0,0,0-7,17L58.3,265.26q-1,3.09-1.86,6.2l-34.93,12a10.59,10.59,0,0,0-3.51,18l27.85,24.24q-.33,3.18-.6,6.37l-32,18.61A10.6,10.6,0,0,0,13.33,369l32.05,18.35q.28,3.19.63,6.37L18.28,418.25a10.59,10.59,0,0,0,3.64,18L56.87,448c.61,2.07,1.25,4.13,1.9,6.19L36.38,483.52a10.59,10.59,0,0,0,7.07,16.93L80,505.14q1.48,2.85,3,5.68L66.84,544a10.6,10.6,0,0,0,10.25,15.22l36.84-2.53c1.34,1.65,2.69,3.29,4.07,4.92l-9.47,35.78a10.59,10.59,0,0,0,13,12.94l35.66-9.67q2.44,2.05,4.94,4.05l-2.32,36.93a10.59,10.59,0,0,0,15.29,10.15l33-16.41c1.89,1,3.78,2,5.69,3l4.93,36.63a10.59,10.59,0,0,0,17,7l29.19-22.53q3.09,1,6.19,1.87l12,35a10.6,10.6,0,0,0,18,3.53L325.33,672q3.18.35,6.37.61l18.58,32a10.59,10.59,0,0,0,18.34,0l18.39-32q3.19-.29,6.37-.63l24.45,27.76a10.59,10.59,0,0,0,18-3.62l11.77-34.93q3.11-.92,6.19-1.89l29.35,22.43a10.6,10.6,0,0,0,16.94-7.06l4.73-36.58c1.91-1,3.8-2,5.69-3.05l33.18,16.29a10.59,10.59,0,0,0,15.23-10.22l-2.14-31.65,1.34-6.59c1.08-.89,2.17-1.77,3.24-2.67l35.77,9.51a10.59,10.59,0,0,0,12.95-13L600.43,561q2.05-2.44,4.07-4.93l36.92,2.36a10.6,10.6,0,0,0,10.17-15.27l-16.37-33.06c1-1.88,2-3.78,3-5.68l36.64-4.88a10.6,10.6,0,0,0,7-17L659.4,453.39c.64-2.06,1.27-4.12,1.87-6.19l35-11.92a10.58,10.58,0,0,0,3.55-18L672,393q.35-3.18.62-6.37l32-18.54A10.59,10.59,0,0,0,704.62,349.72ZM357.93,72.84A20.07,20.07,0,1,1,337.86,92.9,20.07,20.07,0,0,1,357.93,72.84ZM90.13,281.12a20.07,20.07,0,1,1,20.07,20.07A20.08,20.08,0,0,1,90.13,281.12ZM204.31,593.89a20.07,20.07,0,1,1,20.07-20.07A20.08,20.08,0,0,1,204.31,593.89Zm307.93.69a20.07,20.07,0,1,1,20.06-20.07A20.07,20.07,0,0,1,512.24,594.58Zm29.65-58.46-43.34-8.82a20.68,20.68,0,0,0-24.39,16.15l-9.64,47.31a255.24,255.24,0,0,1-211.64-.24L241,541.88a20.69,20.69,0,0,0-25-15.18l-39.67,9.69a254.95,254.95,0,0,1-70.38-206.16l42.32-19.41a20.69,20.69,0,0,0,10.18-27.43l-22-47.93-.1-.21A255,255,0,0,1,312.56,108.54l30.74,30.74a20.69,20.69,0,0,0,29.26,0l31.05-31.06a254.92,254.92,0,0,1,176.9,125.12,21.35,21.35,0,0,0-1.88,3.39L557.51,285a20.7,20.7,0,0,0,10.67,27.25l44,19.22A256.73,256.73,0,0,1,613.61,359,253.84,253.84,0,0,1,541.89,536.12Zm63.76-234.24a20.07,20.07,0,1,1,20.07-20.07A20.08,20.08,0,0,1,605.65,301.88Z"/><path d="M500.08,344.27c1.05,3.62-132.41,99.93-132.41,99.93s-137.44-95.46-136.39-99.07c-24.3,82.8-31.9,158.75-34,186.13L216,526.7a20.69,20.69,0,0,1,25,15.18l11.89,48.64a255.24,255.24,0,0,0,211.64.24l9.64-47.31a20.68,20.68,0,0,1,24.39-16.15l39.47,8C536,512.14,527.5,432,500.08,344.27Z"/><path d="M494.69,327.68c-.86-35.86-9-69.58-28.48-99.79a12.46,12.46,0,0,0,1.61-3.34l12.35-39.1c3.38-10.72-7.65-20.65-17.93-16.14l-37.48,16.45a12.62,12.62,0,0,0-1.67.89c-41.47-12.79-81.56-12.36-120.35.68l-.25-.13L265,169a12.79,12.79,0,0,0-18,15.3L259.33,224a13.39,13.39,0,0,0,1,2.42c-13.77,31.8-21.13,66.05-24,102.11q-1.49,4.65-2.89,9.29l134.2,76.73L497.6,336.46C496.65,333.54,495.69,330.61,494.69,327.68ZM284.2,290.36a9.24,9.24,0,1,1,9.24-9.24A9.24,9.24,0,0,1,284.2,290.36Zm114.47,57.29a59.86,59.86,0,0,1-20,6.63q-3.62.56-7.53.77a7.27,7.27,0,0,0,2-1.92l4-5.67,1.4-2,9.94-14.11c5-7.05,1.64-17.06-6.66-17.06H349c-8.3,0-11.11,10-5.8,17.06L353.48,345l1.73,2.29,4.43,5.87a8,8,0,0,0,2.12,1.92,77,77,0,0,1-8.15-.87,63.35,63.35,0,0,1-21.05-7.13c-17.05-9.61-24-25.94-16.74-39,5.83-10.47,21.41-15.22,37-16.72,4-.39,8-.57,11.9-.57a124.36,124.36,0,0,1,13.19.69c15.26,1.64,30.51,6.41,36.75,16.6C422.77,321.38,416.06,338.13,398.67,347.65Zm47.1-57.29a9.24,9.24,0,1,1,9.24-9.24A9.24,9.24,0,0,1,445.77,290.36Z"/><path class="cls-1" d="M377.88,291.47a124.36,124.36,0,0,0-13.19-.69c-3.85,0-7.88.18-11.9.57-15.56,1.5-31.14,6.25-37,16.72-7.25,13-.31,29.37,16.74,39a63.35,63.35,0,0,0,21.05,7.13,77,77,0,0,0,8.15.87,8,8,0,0,1-2.12-1.92l-4.43-5.87L353.48,345l-10.26-13.61c-5.31-7.05-2.5-17.06,5.8-17.06h32.84c8.3,0,11.62,10,6.66,17.06l-9.94,14.11-1.4,2-4,5.67a7.27,7.27,0,0,1-2,1.92q3.91-.21,7.53-.77a59.86,59.86,0,0,0,20-6.63c17.39-9.52,24.1-26.27,16-39.58C408.39,297.88,393.14,293.11,377.88,291.47Z"/><path class="cls-1" d="M500.08,344.27c-1.05-3.61-2.48-7.81-2.48-7.81L367.67,414.52l-134.2-76.73s-1.14,3.72-2.19,7.34S367.67,444.2,367.67,444.2,501.13,347.89,500.08,344.27Z"/><path class="cls-2" d="M440.07,366.09c-6.81-7.34-13-11.53-18.47-12.21-6-.75-11.12,2.74-15.22,10.95-15.49,1.11-38.35,22.58-43.17,37.65-8.31,26-21.87,25.94-35.58,65.92-24.87,23.9-16.64,34.21-15.85,49.89-3.35,13.8-11.77,20.74-.37,35.13,15.83,10.21,12.58,34.1,23,36.84,16.31,10.76,8.17,4.11,24.65,20.12,17.53,5.66,6.73,41.34,27.73,30.67-.85-18.36-1-38.32,6.34-55.44,6.55-11.93,15.76-12.46,20.91-25.36,6.69-12.77,8.92-27.28,12-41.46,2.66-19.2,7.66-30,9.16-49.41-1.23-17.57,10.51-27.68,14.7-43.78,5.8-14.78-9.27-23.18-2.52-37.59C468.76,376.13,453.38,364.5,440.07,366.09Z"/><path d="M401.43,420.29l32.9-25.1c20.86-15.92,50.39-13.63,63.76,6.37l3.69,5.53c13.3,19.88,3.82,47.22-19.06,59.76l-36.1,19.79c-18.14,9.95-40.77,4.71-51.56-11l-3-4.38c-10.84-15.79-7.15-38.36,9.37-51"/><path d="M344.52,426.47c17.47,11.58,22.9,33.85,13.28,50.23l-2.65,4.53c-9.57,16.31-31.78,22.87-50.66,14l-37.6-17.58c-23.82-11.14-35.39-37.82-23.65-58.42l3.27-5.73c11.82-20.72,41.14-24.75,63.21-10.12l34.8,23.05"/><path d="M411.7,530.21h-7.58s0,4.06-1,5.53-1.55,2-3.73,2.19-4.25-.82-4.66-2.45-1.47-5.34-2.29-6.41a38.58,38.58,0,0,0-3.83-3.52s8.69-4.13,7.5-12.65S384,502.34,384,502.34H373.25v-.06H331.8v11.25h12.43v24.13h-14.5v12.07h41.45V537.67h-9.74v-6.54h8.34a10.57,10.57,0,0,1,4.14.59,6.44,6.44,0,0,1,3.36,4c.32,1.41,1.23,5.77,1.66,7.32a10.86,10.86,0,0,0,1.95,4.19,19,19,0,0,0,2.13,1.93,3.56,3.56,0,0,0,2,.55h25.19c2.38,0,1.45-19.53,1.45-19.53m-37.1-9.31c-2.84.11-9.54.09-13.16.07v-7.43h0v.27l12.78,0c3.29,0,4.87,2.5,4.85,3.56s-.52,3.4-4.51,3.55"/></g></svg>