<svg id="圖層_1" data-name="圖層 1" xmlns="http://www.w3.org/2000/svg" viewBox="0 0 683.11 323.27"><title>rust-taiwan-text</title><polygon points="168.04 264.82 166.22 266.64 166.22 273.98 168.04 275.8 180.37 275.8 180.37 319.89 182.19 321.71 190.85 321.71 192.67 319.89 192.67 275.8 204.92 275.8 206.74 273.98 206.74 266.64 204.92 264.82 168.04 264.82"/><path d="M237.92,263.76l-25.79,55.36,1.65,2.59h9.1l1.66-1.07,5.7-12.65H249l5.56,12.63,1.67,1.09h9.13l1.64-2.59-25.75-55.36Zm-2.85,33.39,4.34-9.65.27-.71c.1.27.2.52.31.78l4.3,9.58Z"/><polygon points="285.39 264.82 283.57 266.64 283.57 319.89 285.39 321.71 294.05 321.71 295.87 319.89 295.87 266.64 294.05 264.82 285.39 264.82"/><path d="M376.82,264.82l-1.7,1.19-10,27.1c-.35,1-.67,1.86-.95,2.68-.34-1-.69-2-1.07-2.93l-11.27-29-3.4,0L337.74,292.3c-.05.13-.15.38-.29.77l-1,2.87q-.5-1.41-1.11-3.06L325.31,266l-1.7-1.18h-8.55l-1.71,2.45L333.9,322.6l3.4,0,11.94-30.25c.3-.77.59-1.57.87-2.39.28.74.57,1.51.87,2.28l12.15,30.37,3.39,0,20.63-55.33-1.71-2.45Z"/><path d="M421.83,263.76,396,319.12l1.65,2.59h9.09l1.66-1.07,5.7-12.65h18.74l5.56,12.63,1.66,1.09h9.13l1.65-2.59-25.76-55.36ZM419,297.15l4.34-9.65.27-.71.31.78,4.31,9.58Z"/><path d="M508.76,264.82l-1.82,1.82v32c-.89-1-1.79-1.93-2.7-2.84l-33.83-32.56-3.08,1.32v55.36l1.82,1.82h8l1.82-1.82V288c.67.73,1.35,1.45,2.05,2.13l34.52,33.13,3.08-1.31V266.64l-1.82-1.82Z"/><polygon points="1.82 288.63 0 290.44 0 296.08 1.82 297.9 149.65 297.9 151.47 296.08 151.47 290.44 149.65 288.63 1.82 288.63"/><polygon points="681.29 288.63 540 288.63 538.19 290.44 538.19 296.08 540 297.9 681.29 297.9 683.11 296.08 683.11 290.44 681.29 288.63"/><path d="M200.19,136c-2.56-12.27-13.77-16.35-24.15-19.22,7.21-7.15,15.3-12.39,19.48-19.83,12.77-22.69,13-46.8.15-69.31-4.75-8.3-13.95-16-22.88-19.51A116.07,116.07,0,0,0,133.32.52C91.66-.4,50,.17,8.28.21,5.82.21,3.35.65.91.88V46l15.38.91V171.1H1.09v45.78H112.23V171.34l-17.29-.86V127.05c23.24-3.82,33,4.12,33.15,26.52,0,5.5,0,11,0,16.48v46.4H215V171.51l-11.37-1.32C202.52,158.32,202.46,146.94,200.19,136ZM123.73,84.28c-4.52,12-17.88,5.75-28.83,7.26V46.29c10.34,1.58,23.55-4.87,28.44,6.58C127.21,61.94,127.24,75,123.73,84.28Z"/><path d="M389.82,62.88H312.13v45.2l14.26.82c0,16.8.4,32.9-.16,49-.29,8.23-5.76,12.53-14.11,13-12.73.75-18.52-4.45-18.6-17.61-.15-26.83,0-53.66-.06-80.5,0-3.38-.29-6.77-.43-9.83H218.48v45l11.6,1.3c0,10.82-.43,21.13.1,31.39.77,14.79.56,29.93,3.76,44.25,6.14,27.39,29.54,41.49,56.58,34.29,10.19-2.72,19.27-9.69,28.75-14.92,2.24-1.24,4.05-3.26,7.09-5.77.31,7.19.55,12.55.8,18.13h74.13V171.31l-11.47-1Z"/><path d="M516.81,120.14c-9.3-2.41-19-3.14-28.49-5-5.89-1.14-14.83.89-14.81-7.88,0-2.19,11-6.17,16.9-6.19,18.59-.07,37.2,1.36,56.18,2.23V66.63c-26.14-6.79-52.24-10.15-78.81-7.19a111.55,111.55,0,0,0-25.3,5.88C423.66,72.11,413.14,85.82,412,106c-1.16,20.42,7.19,35.84,25.7,44.9A122.38,122.38,0,0,0,460.34,159c9.32,2.45,19,3.48,28.3,6,2.65.71,4.46,4.48,6.65,6.85-2.26,2-4.23,4.87-6.87,5.83-3.21,1.15-7,1.07-10.52.89-18.94-1-37.87-2.2-58-3.4,0,10.18.42,19.53-.14,28.82-.39,6.36,1.78,9.32,8,10.56,27.34,5.47,54.74,8.76,82.61,4.5,27.61-4.21,45-21.94,46.41-47.67C558.22,144.56,545.23,127.52,516.81,120.14Z"/><path d="M683.07,169.67c-9,.44-16.7,1-24.4,1.14-7.32.1-13.54-3.43-13.9-10.74-.84-16.91-.27-33.88-.27-51.77h36.43V62H643.38V29.76H586.67C581.6,58,581.6,58,565,63.82v44l11.48,1.64c0,9.93-.28,19.26.06,28.58.52,14.5.23,29.18,2.51,43.42,2.91,18.12,13.13,31.36,31.9,36.33,23,6.07,45.44,3.05,67.6-4,1.86-.59,4.29-3.26,4.34-5C683.24,195.69,683.07,182.58,683.07,169.67Z"/></svg>