<svg id="圖層_1" data-name="圖層 1" xmlns="http://www.w3.org/2000/svg" viewBox="0 0 898.86 898.86"><defs><style>.cls-1{fill:#d9d9d9;}</style></defs><title>rust-taiwan-3</title><circle class="cls-1" cx="449.43" cy="449.43" r="449.43" transform="translate(-186.16 449.43) rotate(-45)"/><polygon points="275.92 552.61 274.1 554.43 274.1 561.78 275.92 563.6 288.25 563.6 288.25 607.68 290.07 609.5 298.73 609.5 300.54 607.68 300.54 563.6 312.8 563.6 314.62 561.78 314.62 554.43 312.8 552.61 275.92 552.61"/><path d="M345.8,551.55,320,606.91l1.65,2.59h9.1l1.65-1.07,5.7-12.64h18.74l5.56,12.62,1.66,1.09h9.14l1.64-2.59L349.1,551.55ZM343,585l4.34-9.66.27-.7c.1.26.2.52.31.77l4.3,9.59Z"/><polygon points="393.27 552.61 391.45 554.43 391.45 607.68 393.27 609.5 401.93 609.5 403.74 607.68 403.74 554.43 401.93 552.61 393.27 552.61"/><path d="M484.7,552.61,483,553.8l-10,27.1c-.36,1-.67,1.86-.95,2.68-.34-1-.7-2-1.07-2.93l-11.27-29-3.4,0-10.68,28.41c-.06.13-.15.38-.29.78-.32.94-.64,1.9-1,2.87-.33-1-.7-2-1.11-3.07l-10.07-26.88-1.71-1.18h-8.54l-1.71,2.45,20.55,55.33,3.4,0,11.94-30.24q.44-1.17.87-2.4c.28.75.56,1.51.87,2.28L471,610.43l3.39,0L495,555.06l-1.7-2.45Z"/><path d="M529.7,551.55l-25.78,55.36,1.64,2.59h9.1l1.65-1.07L522,595.79h18.73l5.56,12.62L548,609.5h9.13l1.65-2.59L533,551.55ZM526.85,585l4.34-9.66.27-.7c.1.26.2.52.31.77l4.3,9.59Z"/><path d="M616.64,552.61l-1.82,1.82v32c-.89-1-1.8-1.93-2.71-2.84L578.29,551l-3.08,1.31v55.36L577,609.5h8l1.82-1.82V575.8c.66.74,1.35,1.45,2.05,2.13l34.52,33.14,3.08-1.31V554.43l-1.82-1.82Z"/><polygon points="109.69 576.42 107.88 578.24 107.88 583.87 109.69 585.69 257.52 585.69 259.34 583.87 259.34 578.24 257.52 576.42 109.69 576.42"/><polygon points="789.17 576.42 647.88 576.42 646.06 578.24 646.06 583.87 647.88 585.69 789.17 585.69 790.98 583.87 790.98 578.24 789.17 576.42"/><path d="M308.06,423.82c-2.55-12.27-13.76-16.35-24.14-19.21,7.21-7.15,15.29-12.4,19.48-19.84,12.76-22.69,13-46.8.15-69.31-4.76-8.3-14-16-22.88-19.51a116.36,116.36,0,0,0-39.47-7.64c-41.67-.92-83.36-.35-125-.3-2.47,0-4.93.43-7.37.66v45.15l15.37.9V458.89H109v45.78H220.11V459.14l-17.29-.87V414.85c23.23-3.83,33,4.11,33.15,26.52,0,5.49,0,11,0,16.47v46.41h86.9V459.3L311.5,458C310.4,446.11,310.34,434.73,308.06,423.82Zm-76.45-51.75c-4.53,12-17.88,5.75-28.83,7.26V334.09c10.33,1.57,23.55-4.88,28.44,6.58C235.09,349.73,235.12,362.78,231.61,372.07Z"/><path d="M497.7,350.67H420v45.2l14.26.83c0,16.8.4,32.89-.17,49-.29,8.23-5.76,12.53-14.1,13-12.73.75-18.52-4.45-18.6-17.61-.15-26.83,0-53.66-.07-80.49,0-3.39-.28-6.78-.42-9.84H326.36v45L338,397c0,10.83-.43,21.13.1,31.39.77,14.79.55,29.93,3.76,44.25,6.13,27.4,29.54,41.49,56.58,34.29,10.19-2.71,19.27-9.69,28.75-14.91,2.24-1.24,4.05-3.26,7.09-5.77.31,7.19.55,12.54.79,18.13h74.14V459.11l-11.47-1Z"/><path d="M624.69,407.93c-9.3-2.41-19-3.14-28.5-5-5.89-1.14-14.82.89-14.81-7.88,0-2.19,11-6.17,16.91-6.19,18.59-.07,37.19,1.36,56.17,2.23V354.43c-26.14-6.8-52.23-10.16-78.81-7.2a111.59,111.59,0,0,0-25.29,5.88c-18.82,6.8-29.35,20.5-30.49,40.71-1.16,20.43,7.19,35.84,25.69,44.9a122.77,122.77,0,0,0,22.66,8.1c9.31,2.44,19,3.47,28.3,6,2.64.71,4.46,4.48,6.65,6.85-2.27,2-4.23,4.87-6.88,5.83-3.2,1.16-7,1.08-10.51.89-18.94-1-37.88-2.19-58.06-3.4,0,10.18.43,19.53-.14,28.82-.38,6.36,1.79,9.32,8,10.56,27.34,5.48,54.74,8.76,82.61,4.51,27.61-4.22,45-21.95,46.41-47.68C666.1,432.35,653.11,415.31,624.69,407.93Z"/><path d="M791,457.46c-9,.44-16.7,1-24.4,1.14-7.32.11-13.54-3.43-13.9-10.74-.84-16.9-.27-33.88-.27-51.77h36.43V349.77H751.26V317.55H694.55c-5.07,28.22-5.07,28.22-21.69,34.06v44l11.47,1.64c0,9.92-.27,19.26.07,28.58.52,14.49.22,29.17,2.51,43.42,2.91,18.11,13.12,31.35,31.9,36.32,23,6.07,45.43,3,67.59-4,1.86-.58,4.3-3.26,4.35-5C791.11,483.49,791,470.37,791,457.46Z"/></svg>