<svg id="圖層_1" data-name="圖層 1" xmlns="http://www.w3.org/2000/svg" viewBox="0 0 898.86 898.86"><defs><style>.cls-1{fill:gray;}.cls-2{fill:#fff;}.cls-3{fill:#e6e6e6;}</style></defs><title>rust-taiwan-6</title><circle class="cls-1" cx="449.43" cy="449.43" r="449.43" transform="translate(-186.16 449.43) rotate(-45)"/><path d="M449.43,837.64A388.31,388.31,0,0,1,298.32,91.73a388.31,388.31,0,0,1,302.22,715.4A385.66,385.66,0,0,1,449.43,837.64Zm0-769.72c-210.36,0-381.51,171.14-381.51,381.51S239.07,830.94,449.43,830.94,830.94,659.79,830.94,449.43,659.8,67.92,449.43,67.92Z"/><path d="M795.09,440.19l-32-18.43c-.19-2.12-.4-4.25-.63-6.37L790.25,391a10.59,10.59,0,0,0-3.59-18l-34.93-11.81c-.6-2.07-1.23-4.13-1.87-6.19l22.46-29.33a10.59,10.59,0,0,0-7-16.94l-36.57-4.78c-1-1.91-2-3.8-3-5.69L742,265.08a10.59,10.59,0,0,0-10.2-15.25L695,252.28c-1.34-1.66-2.7-3.3-4.07-4.94l9.56-35.76a10.59,10.59,0,0,0-13-13l-35.67,9.59c-1.64-1.38-3.28-2.73-4.93-4.07l2.4-36.93A10.59,10.59,0,0,0,634,157l-33.08,16.33c-1.88-1-3.78-2.05-5.68-3l-4.84-36.65a10.59,10.59,0,0,0-16.95-7l-29.24,22.45q-3.09-1-6.19-1.89l-11.88-35a10.59,10.59,0,0,0-18-3.58l-24.34,27.77q-3.18-.34-6.37-.63l-18.5-32a10.6,10.6,0,0,0-18.35,0l-18.46,32q-3.94.34-7.88.78l-24.52-27.7a10.59,10.59,0,0,0-18,3.66l-11.69,35q-3.1.92-6.18,1.91L324.48,127a10.59,10.59,0,0,0-16.91,7.1l-4.65,36.58q-2.85,1.52-5.67,3.07L264,157.54a10.59,10.59,0,0,0-15.21,10.25l2.57,36.85c-1.65,1.34-3.29,2.69-4.92,4.07l-35.79-9.43a10.59,10.59,0,0,0-12.92,13L207.48,248q-2.05,2.45-4,4.94l-36.94-2.27a10.59,10.59,0,0,0-10.12,15.29l16.44,33q-1.53,2.82-3,5.69l-36.63,5a10.59,10.59,0,0,0-7,17l22.56,29.17q-1,3.09-1.86,6.19l-34.94,12a10.59,10.59,0,0,0-3.51,18l27.85,24.24q-.33,3.18-.6,6.37l-32,18.62a10.59,10.59,0,0,0,.06,18.34l32.05,18.35q.3,3.19.64,6.37l-27.73,24.49a10.59,10.59,0,0,0,3.64,18l34.94,11.73c.62,2.07,1.25,4.12,1.9,6.18L126.84,574a10.59,10.59,0,0,0,7.08,16.92l36.58,4.69q1.5,2.86,3.05,5.68l-16.24,33.2a10.59,10.59,0,0,0,10.24,15.22l36.84-2.53q2,2.49,4.07,4.93L199,687.88a10.59,10.59,0,0,0,13,12.93l35.65-9.67q2.46,2.05,4.94,4.06l-2.31,36.93a10.59,10.59,0,0,0,15.28,10.14l33-16.4q2.84,1.53,5.7,3l4.92,36.64a10.58,10.58,0,0,0,17,7L355.37,750c2.05.64,4.12,1.27,6.19,1.87l12,34.95a10.59,10.59,0,0,0,18,3.53l24.27-27.83q3.19.35,6.37.62l18.58,32a10.6,10.6,0,0,0,18.35,0l18.39-32q3.18-.28,6.36-.63l24.46,27.76a10.59,10.59,0,0,0,18-3.62l11.78-34.93q3.09-.92,6.18-1.89l29.36,22.43a10.59,10.59,0,0,0,16.93-7.06l4.74-36.58c1.9-1,3.8-2,5.68-3l33.18,16.28a10.58,10.58,0,0,0,15.23-10.22l-2.13-31.65,1.34-6.59c1.08-.89,2.17-1.77,3.24-2.67l35.77,9.52a10.6,10.6,0,0,0,12.95-13L690.9,651.5c1.37-1.63,2.73-3.28,4.06-4.94l36.93,2.36a10.59,10.59,0,0,0,10.16-15.27l-16.36-33.06q1.53-2.82,3-5.68L765.36,590a10.59,10.59,0,0,0,7-17l-22.49-29.21q1-3.09,1.88-6.19l35-11.92a10.59,10.59,0,0,0,3.55-18l-27.79-24.31q.33-3.18.62-6.37l32-18.54A10.59,10.59,0,0,0,795.09,440.19ZM448.39,163.3a20.07,20.07,0,1,1-20.06,20.07A20.07,20.07,0,0,1,448.39,163.3ZM180.6,371.58a20.07,20.07,0,1,1,20.07,20.07A20.06,20.06,0,0,1,180.6,371.58ZM294.77,684.35a20.07,20.07,0,1,1,20.07-20.06A20.06,20.06,0,0,1,294.77,684.35ZM602.7,685A20.07,20.07,0,1,1,622.77,665,20.07,20.07,0,0,1,602.7,685Zm29.65-58.46L589,617.77a20.69,20.69,0,0,0-24.4,16.14L555,681.23A255.26,255.26,0,0,1,343.34,681l-11.88-48.64a20.7,20.7,0,0,0-25-15.19l-39.68,9.7a253.82,253.82,0,0,1-72-177.43,257.18,257.18,0,0,1,1.6-28.73l42.32-19.41a20.7,20.7,0,0,0,10.18-27.44l-22-47.92a2.12,2.12,0,0,0-.11-.21A255,255,0,0,1,403,199l30.74,30.74a20.69,20.69,0,0,0,29.26,0l31.06-31.06A254.91,254.91,0,0,1,671,323.81a20.59,20.59,0,0,0-1.88,3.39L648,375.51a20.68,20.68,0,0,0,10.67,27.24l44,19.22a259.37,259.37,0,0,1,1.47,27.46A253.78,253.78,0,0,1,632.35,626.58Zm63.77-234.24a20.07,20.07,0,1,1,20.06-20.06A20.07,20.07,0,0,1,696.12,392.34Z"/><path d="M590.55,434.74c1.05,3.61-132.42,99.93-132.42,99.93s-137.44-95.46-136.39-99.08c-24.3,82.81-31.89,158.75-34,186.14l18.68-4.57a20.7,20.7,0,0,1,25,15.19L343.34,681a255.26,255.26,0,0,0,211.65.24l9.63-47.32A20.69,20.69,0,0,1,589,617.77l39.47,8C626.48,602.61,618,522.43,590.55,434.74Z"/><path d="M585.16,418.15c-.87-35.86-9-69.59-28.48-99.8a12.85,12.85,0,0,0,1.61-3.33l12.34-39.1c3.39-10.72-7.65-20.66-17.92-16.15l-37.49,16.46a13.23,13.23,0,0,0-1.67.88c-41.46-12.78-81.56-12.35-120.35.68l-.24-.12-37.45-18.22a12.79,12.79,0,0,0-18,15.3l12.24,39.68a13.83,13.83,0,0,0,1,2.43c-13.78,31.8-21.14,66.05-24,102.1q-1.49,4.67-2.9,9.3L458.13,505l129.93-78.05Q586.65,422.55,585.16,418.15Zm-210.5-37.33a9.24,9.24,0,1,1,9.24-9.24A9.24,9.24,0,0,1,374.66,380.82Zm114.48,57.3a60.16,60.16,0,0,1-20,6.62c-2.41.37-4.93.63-7.53.78a7.13,7.13,0,0,0,2-1.93l4-5.67,1.4-2,9.94-14.1c5-7.05,1.64-17.07-6.65-17.07H439.49c-8.3,0-11.12,10-5.8,17.07L444,435.43l1.73,2.29,4.43,5.87a7.62,7.62,0,0,0,2.12,1.93,79.67,79.67,0,0,1-8.16-.87A63.43,63.43,0,0,1,423,437.52c-17-9.61-24-25.95-16.73-39,5.83-10.48,21.41-15.22,37-16.73,4-.39,8-.57,11.89-.57a124.74,124.74,0,0,1,13.2.7c15.26,1.63,30.5,6.4,36.74,16.6C513.23,411.85,506.52,428.6,489.14,438.12Zm47.09-57.3a9.24,9.24,0,1,1,9.25-9.24A9.23,9.23,0,0,1,536.23,380.82Z"/><path class="cls-2" d="M374.66,362.34a9.24,9.24,0,1,0,9.24,9.24A9.24,9.24,0,0,0,374.66,362.34Z"/><path class="cls-2" d="M468.35,381.94a124.74,124.74,0,0,0-13.2-.7c-3.85,0-7.87.18-11.89.57-15.56,1.51-31.14,6.25-37,16.73-7.26,13-.31,29.37,16.73,39a63.43,63.43,0,0,0,21.05,7.13,79.67,79.67,0,0,0,8.16.87,7.62,7.62,0,0,1-2.12-1.93l-4.43-5.87L444,435.43l-10.26-13.6c-5.32-7.05-2.5-17.07,5.8-17.07h32.84c8.29,0,11.62,10,6.65,17.07L469,435.93l-1.4,2-4,5.67a7.13,7.13,0,0,1-2,1.93c2.6-.15,5.12-.41,7.53-.78a60.16,60.16,0,0,0,20-6.62c17.38-9.52,24.09-26.27,15.95-39.58C498.85,388.34,483.61,383.57,468.35,381.94Z"/><path class="cls-2" d="M536.23,362.34a9.24,9.24,0,1,0,9.25,9.24A9.24,9.24,0,0,0,536.23,362.34Z"/><path class="cls-2" d="M590.55,434.74c-1-3.62-2.49-7.81-2.49-7.81L458.13,505l-134.2-76.72s-1.14,3.72-2.19,7.33,136.39,99.08,136.39,99.08S591.6,438.35,590.55,434.74Z"/><path class="cls-3" d="M530.53,456.55c-6.81-7.34-13-11.53-18.46-12.21-6-.75-11.13,2.75-15.22,11-15.49,1.1-38.35,22.58-43.18,37.64-8.3,26-21.86,25.95-35.57,65.92-24.87,23.91-16.65,34.22-15.86,49.89-3.34,13.8-11.77,20.75-.36,35.14,15.83,10.2,12.57,34.09,23,36.84,16.31,10.75,8.17,4.1,24.65,20.12,17.53,5.66,6.74,41.34,27.73,30.66-.84-18.35-1-38.32,6.34-55.43,6.56-11.93,15.77-12.47,20.91-25.37,6.7-12.76,8.93-27.28,12-41.45,2.67-19.21,7.67-30,9.16-49.41-1.22-17.57,10.52-27.69,14.71-43.79,5.79-14.77-9.27-23.17-2.53-37.58C559.23,466.59,543.84,455,530.53,456.55Z"/><path d="M491.89,510.75l32.9-25.1c20.86-15.92,50.39-13.63,63.76,6.37l3.7,5.53c13.29,19.88,3.81,47.22-19.06,59.76l-36.11,19.8c-18.14,9.94-40.76,4.7-51.55-11l-3-4.37c-10.84-15.8-7.15-38.36,9.36-51"/><path d="M435,516.94c17.48,11.58,22.9,33.84,13.29,50.22l-2.66,4.54c-9.57,16.3-31.77,22.87-50.66,14l-37.59-17.58C333.54,557,322,530.34,333.71,509.74L337,504c11.82-20.72,41.15-24.75,63.22-10.13L435,516.94"/><path d="M502.16,620.68h-7.57s0,4.05-1,5.53-1.55,2-3.73,2.18-4.25-.81-4.66-2.45-1.47-5.34-2.29-6.4a38.76,38.76,0,0,0-3.82-3.52s8.68-4.14,7.5-12.65-12.17-10.57-12.17-10.57l-10.73,0v-.07H422.26V604H434.7v24.14H420.19v12.07h41.45V628.14H451.9v-6.55h8.35a10.41,10.41,0,0,1,4.13.58,6.44,6.44,0,0,1,3.37,4.05c.32,1.41,1.23,5.77,1.65,7.32a11.16,11.16,0,0,0,2,4.19,21.65,21.65,0,0,0,2.12,1.93,3.71,3.71,0,0,0,2,.55h25.18c2.39,0,1.45-19.53,1.45-19.53m-37.09-9.31c-2.85.11-9.54.09-13.17.06V604h0v.28l12.77,0c3.3,0,4.87,2.51,4.86,3.56s-.52,3.41-4.51,3.56"/><path d="M430,38.11c-.35-1.68-1.89-2.24-3.32-2.63a15.2,15.2,0,0,0,2.68-2.72,9.25,9.25,0,0,0,0-9.51,6.73,6.73,0,0,0-3.14-2.68,16.15,16.15,0,0,0-5.42-1c-5.71-.13-11.43-.05-17.15-.05-.34,0-.68.06-1,.09v6.2l2.11.12v17h-2.08v6.28h15.24V43l-2.37-.12v-6c3.19-.52,4.53.57,4.55,3.64v8.63H432V43l-1.56-.18A45.67,45.67,0,0,0,430,38.11ZM419.49,31c-.62,1.64-2.45.78-4,1v-6.2c1.42.21,3.23-.67,3.91.9A6.38,6.38,0,0,1,419.49,31Z"/><path d="M456,28.08H445.33v6.2l2,.11c0,2.31,0,4.52,0,6.72a1.79,1.79,0,0,1-1.93,1.79c-1.75.1-2.54-.61-2.55-2.42,0-3.68,0-7.36,0-11,0-.47,0-.93-.06-1.35H432.49v6.17l1.59.18c0,1.48-.06,2.9,0,4.3a37,37,0,0,0,.52,6.07,6,6,0,0,0,7.76,4.71,19.22,19.22,0,0,0,3.94-2.05,8.24,8.24,0,0,0,1-.79c0,1,.07,1.72.1,2.49h10.17V43L456,42.82Z"/><path d="M473.41,35.93c-1.28-.33-2.61-.43-3.91-.68-.81-.15-2,.13-2-1.08,0-.3,1.5-.84,2.32-.85,2.55,0,5.1.19,7.7.31v-5a29.33,29.33,0,0,0-10.81-1,15.33,15.33,0,0,0-3.47.8A5.92,5.92,0,0,0,459,34a6,6,0,0,0,3.53,6.16,16.83,16.83,0,0,0,3.1,1.11c1.28.33,2.61.48,3.88.82.37.1.62.62.92.94-.32.28-.58.67-.95.8a3.65,3.65,0,0,1-1.44.12c-2.6-.13-5.19-.3-8-.46,0,1.39.06,2.67,0,3.95a1.18,1.18,0,0,0,1.09,1.45,32.29,32.29,0,0,0,11.34.61c3.79-.57,6.17-3,6.36-6.53C479.09,39.28,477.31,37,473.41,35.93Z"/><path d="M496.21,42.73c-1.23.06-2.29.14-3.34.16S491,42.41,491,41.41c-.12-2.32,0-4.64,0-7.1h5V28h-5.15V23.54H483c-.69,3.87-.69,3.87-3,4.67v6l1.57.22c0,1.36,0,2.65,0,3.92a49.15,49.15,0,0,0,.34,6,5.72,5.72,0,0,0,4.38,5,16.36,16.36,0,0,0,9.27-.54,1,1,0,0,0,.6-.69C496.24,46.3,496.21,44.5,496.21,42.73Z"/><polygon points="410.37 856.26 409.96 856.67 409.96 858.31 410.37 858.71 413.12 858.71 413.12 868.54 413.52 868.95 415.45 868.95 415.86 868.54 415.86 858.71 418.6 858.71 419 858.31 419 856.67 418.6 856.26 410.37 856.26"/><path d="M426,856l-5.76,12.34.37.58h2l.37-.24,1.27-2.82h4.18l1.24,2.82.37.24h2l.36-.58L426.69,856Zm-.64,7.44,1-2.15a1.66,1.66,0,0,1,.06-.16l.06.18,1,2.13Z"/><polygon points="436.54 856.26 436.13 856.67 436.13 868.54 436.54 868.95 438.47 868.95 438.88 868.54 438.88 856.67 438.47 856.26 436.54 856.26"/><path d="M456.93,856.26l-.38.27-2.23,6-.21.6-.24-.66-2.52-6.46h-.75l-2.39,6.34-.06.17-.21.64-.25-.68-2.25-6-.38-.27h-1.9l-.38.55,4.58,12.34h.76l2.66-6.74c.07-.17.13-.35.19-.53.07.16.13.33.2.5l2.71,6.78h.75l4.6-12.34-.38-.55Z"/><path d="M467,856l-5.76,12.34.37.58h2l.37-.24,1.27-2.82h4.18l1.24,2.82.37.24h2l.37-.58L467.7,856Zm-.64,7.44,1-2.15.06-.16a1.34,1.34,0,0,0,.07.18l.95,2.13Z"/><path d="M486.35,856.26l-.4.41v7.13c-.2-.22-.4-.43-.61-.63l-7.54-7.27-.69.3v12.34l.41.41h1.78l.4-.41v-7.11c.15.17.3.33.46.48l7.7,7.39.68-.29V856.67l-.4-.41Z"/><polygon points="389.99 861.57 389.58 861.98 389.58 863.24 389.99 863.64 406.27 863.64 406.67 863.24 406.67 861.98 406.27 861.57 389.99 861.57"/><polygon points="508.87 861.57 493.32 861.57 492.92 861.98 492.92 863.24 493.32 863.64 508.87 863.64 509.28 863.24 509.28 861.98 508.87 861.57"/></svg>