<svg id="圖層_1" data-name="圖層 1" xmlns="http://www.w3.org/2000/svg" xmlns:xlink="http://www.w3.org/1999/xlink" viewBox="0 0 1944.2 898.86"><defs><style>.cls-1{fill:#d9d9d9;}.cls-2{fill:#fff;}.cls-3{fill:url(#linear-gradient);}</style><linearGradient id="linear-gradient" x1="775.55" y1="-540.53" x2="776.26" y2="-540.53" gradientTransform="matrix(213.14, -11.72, -18.2, -199.04, -174589.96, -97921.23)" gradientUnits="userSpaceOnUse"><stop offset="0" stop-color="#6cc291"/><stop offset="1" stop-color="#005e62"/></linearGradient></defs><title>rust-taiwan-1</title><rect class="cls-1" width="1944.2" height="898.86"/><path d="M914.63,441.05l-29-16.7q-.25-2.89-.56-5.77l25.19-22.14A9.6,9.6,0,0,0,907,380.13l-31.66-10.71q-.83-2.81-1.7-5.61L894,337.23a9.6,9.6,0,0,0-6.37-15.36l-33.16-4.33q-1.35-2.6-2.75-5.16l14.79-30.06a9.6,9.6,0,0,0-9.24-13.82l-33.4,2.22q-1.83-2.27-3.69-4.48l8.67-32.41a9.6,9.6,0,0,0-11.77-11.75l-32.34,8.68q-2.22-1.86-4.47-3.68l2.18-33.47a9.59,9.59,0,0,0-13.83-9.23l-30,14.8c-1.71-.94-3.42-1.86-5.15-2.76L729.1,163.2a9.61,9.61,0,0,0-15.37-6.36L687.22,177.2q-2.79-.88-5.6-1.71l-10.77-31.71a9.6,9.6,0,0,0-16.31-3.24l-22.07,25.17q-2.88-.32-5.77-.57l-16.77-29a9.6,9.6,0,0,0-16.63,0l-16.74,29c-2.39.2-4.77.44-7.14.7l-22.23-25.11A9.6,9.6,0,0,0,530.9,144l-10.59,31.69q-2.82.84-5.61,1.73L488,157.15a9.59,9.59,0,0,0-15.33,6.43l-4.22,33.16c-1.72.91-3.44,1.84-5.14,2.78l-30.12-14.69a9.6,9.6,0,0,0-13.78,9.3l2.34,33.4q-2.25,1.82-4.47,3.69l-32.44-8.55a9.6,9.6,0,0,0-11.71,11.81l8.8,32.31q-1.86,2.22-3.67,4.48l-33.48-2.06a9.61,9.61,0,0,0-9.18,13.87L350.55,313q-1.4,2.56-2.74,5.16l-33.2,4.51a9.6,9.6,0,0,0-6.3,15.38l20.45,26.44c-.58,1.87-1.15,3.74-1.69,5.61L295.4,381a9.6,9.6,0,0,0-3.18,16.32l25.25,22c-.2,1.92-.39,3.85-.55,5.77l-29,16.88a9.6,9.6,0,0,0,.06,16.63L317,475.2c.17,1.92.36,3.85.57,5.77l-25.13,22.2a9.59,9.59,0,0,0,3.3,16.29l31.68,10.63c.55,1.88,1.13,3.75,1.72,5.61l-20.3,26.64a9.6,9.6,0,0,0,6.41,15.34l33.17,4.25c.9,1.73,1.83,3.44,2.76,5.15l-14.72,30.1A9.59,9.59,0,0,0,345.78,631l33.4-2.29q1.81,2.25,3.69,4.47l-8.59,32.43a9.6,9.6,0,0,0,11.79,11.72l32.32-8.76q2.24,1.86,4.48,3.67l-2.1,33.48a9.6,9.6,0,0,0,13.85,9.2L464.57,700q2.56,1.4,5.16,2.75l4.46,33.2a9.6,9.6,0,0,0,15.38,6.33L516,721.87c1.87.59,3.74,1.15,5.61,1.7l10.85,31.68a9.6,9.6,0,0,0,16.32,3.2l22-25.22c1.92.2,3.85.39,5.77.55l16.85,29a9.59,9.59,0,0,0,16.62,0l16.67-29q2.89-.26,5.77-.57l22.17,25.17A9.61,9.61,0,0,0,671,755l10.67-31.67q2.8-.82,5.6-1.71L713.86,742a9.61,9.61,0,0,0,15.35-6.4l4.29-33.16c1.73-.9,3.44-1.82,5.15-2.76l30.08,14.76a9.6,9.6,0,0,0,13.81-9.26l-1.94-28.69,1.21-6c1-.8,2-1.6,2.94-2.42l32.43,8.63a9.59,9.59,0,0,0,11.73-11.78l-8.72-32.33q1.86-2.22,3.68-4.47l33.47,2.13a9.6,9.6,0,0,0,9.22-13.84l-14.84-30c.93-1.71,1.85-3.42,2.75-5.16l33.21-4.42A9.59,9.59,0,0,0,894,561.51L873.64,535q.87-2.81,1.7-5.61L907,518.61a9.6,9.6,0,0,0,3.23-16.31l-25.2-22q.32-2.88.57-5.77l29-16.81A9.6,9.6,0,0,0,914.63,441.05Zm-314.27-251a18.19,18.19,0,1,1-18.19,18.19A18.18,18.18,0,0,1,600.36,190.06ZM357.61,378.86a18.19,18.19,0,1,1,18.19,18.19A18.19,18.19,0,0,1,357.61,378.86Zm103.5,283.52a18.19,18.19,0,1,1,18.19-18.19A18.18,18.18,0,0,1,461.11,662.38Zm279.13.63a18.19,18.19,0,1,1,18.19-18.19A18.18,18.18,0,0,1,740.24,663Zm26.87-53-39.27-8a18.75,18.75,0,0,0-22.12,14.64L697,659.55a231.41,231.41,0,0,1-191.86-.22l-10.77-44.09a18.75,18.75,0,0,0-22.67-13.76l-36,8.79a230.07,230.07,0,0,1-65.26-160.84,233.38,233.38,0,0,1,1.45-26.05l38.37-17.59a18.76,18.76,0,0,0,9.22-24.87l-19.92-43.44a1.14,1.14,0,0,0-.1-.19A231.11,231.11,0,0,1,559.23,222.43l27.87,27.86a18.76,18.76,0,0,0,26.52,0l28.15-28.15A231.05,231.05,0,0,1,802.13,335.56a18.58,18.58,0,0,0-1.7,3.07l-19.15,43.79a18.76,18.76,0,0,0,9.67,24.7l39.85,17.42a232.58,232.58,0,0,1,1.33,24.89A230.07,230.07,0,0,1,767.11,610Zm57.81-212.34a18.19,18.19,0,1,1,18.19-18.19A18.18,18.18,0,0,1,824.92,397.68Z"/><path d="M729.22,436.11c.95,3.28-120,90.59-120,90.59S484.6,440.16,485.55,436.89c-22,75.06-28.91,143.9-30.79,168.72l16.93-4.13a18.75,18.75,0,0,1,22.67,13.76l10.77,44.09a231.41,231.41,0,0,0,191.86.22l8.73-42.89A18.75,18.75,0,0,1,727.84,602l35.77,7.28C761.79,588.28,754.07,515.61,729.22,436.11Z"/><path d="M724.34,421.07c-.79-32.5-8.19-63.07-25.82-90.46a11.43,11.43,0,0,0,1.46-3l11.19-35.45c3.06-9.72-6.94-18.72-16.25-14.63l-34,14.92a10.3,10.3,0,0,0-1.51.8c-37.59-11.59-73.94-11.2-109.1.62l-.22-.12-34-16.51a11.6,11.6,0,0,0-16.28,13.87l11.1,36a11.89,11.89,0,0,0,.92,2.19c-12.49,28.83-19.16,59.88-21.74,92.56-.89,2.81-1.77,5.63-2.62,8.43l121.65,69.55L727,429Q725.68,425.06,724.34,421.07ZM533.53,387.24a8.38,8.38,0,1,1,8.37-8.38A8.38,8.38,0,0,1,533.53,387.24Zm103.76,51.94a54.52,54.52,0,0,1-18.11,6c-2.18.33-4.46.57-6.82.7a6.58,6.58,0,0,0,1.83-1.74l3.62-5.14,1.27-1.8,9-12.79c4.5-6.39,1.49-15.47-6-15.47H592.29c-7.53,0-10.08,9.08-5.26,15.47l9.3,12.33,1.57,2.08,4,5.32a7.2,7.2,0,0,0,1.92,1.74,71.46,71.46,0,0,1-7.39-.79,57.34,57.34,0,0,1-19.08-6.46c-15.45-8.71-21.74-23.52-15.17-35.33,5.29-9.5,19.41-13.8,33.51-15.17,3.65-.35,7.3-.51,10.79-.51a111.68,111.68,0,0,1,12,.63c13.83,1.48,27.65,5.8,33.31,15.05C659.14,415.36,653.05,430.55,637.29,439.18ZM680,387.24a8.38,8.38,0,1,1,8.37-8.38A8.38,8.38,0,0,1,680,387.24Z"/><path class="cls-2" d="M533.53,370.49a8.38,8.38,0,1,0,8.37,8.37A8.38,8.38,0,0,0,533.53,370.49Z"/><path class="cls-2" d="M618.45,388.25a111.68,111.68,0,0,0-12-.63c-3.49,0-7.14.16-10.79.51-14.1,1.37-28.22,5.67-33.51,15.17-6.57,11.81-.28,26.62,15.17,35.33a57.34,57.34,0,0,0,19.08,6.46,71.46,71.46,0,0,0,7.39.79,7.2,7.2,0,0,1-1.92-1.74l-4-5.32-1.57-2.08L587,424.41c-4.82-6.39-2.27-15.47,5.26-15.47h29.77c7.52,0,10.53,9.08,6,15.47l-9,12.79-1.27,1.8-3.62,5.14a6.58,6.58,0,0,1-1.83,1.74c2.36-.13,4.64-.37,6.82-.7a54.52,54.52,0,0,0,18.11-6c15.76-8.63,21.85-23.82,14.47-35.88C646.1,394.05,632.28,389.73,618.45,388.25Z"/><path class="cls-2" d="M680,370.49a8.38,8.38,0,1,0,8.37,8.37A8.38,8.38,0,0,0,680,370.49Z"/><path class="cls-2" d="M729.22,436.11c-1-3.28-2.25-7.08-2.25-7.08L609.19,499.79,487.54,430.24s-1,3.37-2,6.65S609.19,526.7,609.19,526.7,730.17,439.39,729.22,436.11Z"/><path class="cls-3" d="M674.82,455.88c-6.18-6.65-11.79-10.44-16.74-11.06-5.44-.68-10.09,2.49-13.79,9.93-14,1-34.77,20.47-39.15,34.12-7.52,23.56-19.82,23.52-32.24,59.76-22.55,21.67-15.09,31-14.38,45.22-3,12.51-10.67,18.81-.33,31.85,14.35,9.25,11.4,30.91,20.82,33.4,14.79,9.75,7.41,3.72,22.35,18.24,15.89,5.13,6.1,37.47,25.14,27.79-.77-16.64-.94-34.73,5.74-50.25,5.94-10.81,14.29-11.3,19-23,6.07-11.57,8.09-24.73,10.89-37.58,2.42-17.41,6.95-27.19,8.3-44.79-1.11-15.93,9.54-25.09,13.33-39.69,5.25-13.39-8.4-21-2.28-34.07C700.83,465,686.88,454.45,674.82,455.88Z"/><path d="M639.79,505l29.83-22.75c18.91-14.43,45.67-12.36,57.79,5.77l3.35,5c12,18,3.46,42.8-17.28,54.17l-32.72,17.95c-16.45,9-37,4.26-46.74-10l-2.72-4c-9.82-14.32-6.48-34.78,8.49-46.2"/><path d="M588.21,510.62c15.83,10.5,20.75,30.68,12,45.53l-2.41,4.11C589.17,575.05,569,581,551.92,573l-34.08-15.93c-21.59-10.1-32.09-34.28-21.44-52.95l3-5.2c10.71-18.78,37.29-22.43,57.3-9.18l31.55,20.9"/><path d="M649.1,604.66h-6.87s0,3.68-.88,5-1.41,1.8-3.38,2-3.85-.74-4.23-2.23-1.33-4.84-2.07-5.8a34.71,34.71,0,0,0-3.47-3.19s7.87-3.75,6.8-11.47-11-9.57-11-9.57h-9.72v-.06H576.67v10.2H588v21.88H574.79v10.94h37.58V611.43h-8.83v-5.94h7.57a9.46,9.46,0,0,1,3.74.53,5.8,5.8,0,0,1,3,3.66c.3,1.28,1.12,5.23,1.5,6.64a10.08,10.08,0,0,0,1.78,3.8,17.15,17.15,0,0,0,1.93,1.75,3.25,3.25,0,0,0,1.85.5h22.83c2.16,0,1.31-17.71,1.31-17.71m-33.63-8.44c-2.57.1-8.64.08-11.93.07v-6.74h0v.25l11.58,0c3,0,4.42,2.27,4.41,3.23s-.48,3.09-4.1,3.22"/><polygon points="1145.97 563.91 1144.15 565.73 1144.15 573.08 1145.97 574.9 1158.3 574.9 1158.3 618.98 1160.12 620.8 1168.78 620.8 1170.6 618.98 1170.6 574.9 1182.85 574.9 1184.67 573.08 1184.67 565.73 1182.85 563.91 1145.97 563.91"/><path d="M1215.85,562.85l-25.79,55.36,1.65,2.59h9.1l1.65-1.07,5.71-12.64h18.73l5.56,12.62,1.67,1.09h9.13l1.64-2.59-25.75-55.36Zm-2.85,33.4,4.34-9.66.27-.7c.1.26.2.52.31.77l4.3,9.59Z"/><polygon points="1263.32 563.91 1261.5 565.73 1261.5 618.98 1263.32 620.8 1271.98 620.8 1273.8 618.98 1273.8 565.73 1271.98 563.91 1263.32 563.91"/><path d="M1354.75,563.91l-1.7,1.19-10,27.1c-.35,1-.67,1.86-1,2.68-.34-1-.69-2-1.07-2.93l-11.27-29-3.4,0-10.68,28.41c-.05.13-.15.38-.29.78-.32.94-.64,1.9-1,2.87-.33-.95-.7-2-1.11-3.07l-10.07-26.88-1.7-1.18H1293l-1.71,2.45,20.55,55.33,3.4,0,11.94-30.24c.29-.78.59-1.58.87-2.4q.42,1.13.87,2.28l12.15,30.37,3.39,0,20.63-55.33-1.71-2.45Z"/><path d="M1399.76,562.85,1374,618.21l1.65,2.59h9.09l1.66-1.07,5.7-12.64h18.73l5.57,12.62,1.66,1.09h9.13l1.65-2.59-25.76-55.36Zm-2.86,33.4,4.34-9.66.27-.7c.11.26.2.52.31.77l4.31,9.59Z"/><path d="M1486.69,563.91l-1.82,1.82v32c-.89-1-1.79-1.93-2.7-2.84l-33.83-32.55-3.08,1.31V619l1.82,1.82h8l1.82-1.82V587.1c.67.74,1.35,1.45,2.05,2.13l34.52,33.14,3.08-1.31V565.73l-1.82-1.82Z"/><polygon points="979.75 587.72 977.93 589.54 977.93 595.17 979.75 596.99 1127.58 596.99 1129.4 595.17 1129.4 589.54 1127.58 587.72 979.75 587.72"/><polygon points="1659.22 587.72 1517.93 587.72 1516.12 589.54 1516.12 595.17 1517.93 596.99 1659.22 596.99 1661.04 595.17 1661.04 589.54 1659.22 587.72"/><path d="M1178.12,435.12c-2.56-12.27-13.77-16.35-24.15-19.21,7.21-7.16,15.3-12.4,19.48-19.84,12.77-22.69,13-46.8.15-69.31-4.75-8.3-13.95-16-22.88-19.51a116.31,116.31,0,0,0-39.47-7.64c-41.66-.92-83.36-.35-125-.3-2.46,0-4.93.43-7.37.66v45.15l15.37.9V470.19H979V516h111.14V470.44l-17.29-.87V426.15c23.24-3.83,33,4.11,33.15,26.52,0,5.49,0,11,0,16.47v46.41h86.89V470.6l-11.37-1.31C1180.45,457.41,1180.39,446,1178.12,435.12Zm-76.46-51.75c-4.53,12-17.88,5.75-28.83,7.26V345.39c10.34,1.57,23.55-4.88,28.44,6.58C1105.14,361,1105.17,374.08,1101.66,383.37Z"/><path d="M1367.75,362h-77.69v45.2l14.26.83c0,16.8.4,32.89-.16,49-.29,8.23-5.76,12.53-14.11,13-12.73.75-18.52-4.45-18.6-17.61-.15-26.83,0-53.66-.07-80.49,0-3.39-.28-6.78-.42-9.84h-74.55v45l11.6,1.3c0,10.83-.43,21.13.1,31.39.77,14.79.56,29.93,3.76,44.25,6.14,27.4,29.54,41.49,56.58,34.29,10.19-2.71,19.27-9.69,28.75-14.91,2.24-1.24,4-3.26,7.09-5.77.31,7.18.55,12.54.8,18.13h74.13V470.41l-11.47-1Z"/><path d="M1494.74,419.23c-9.3-2.41-19-3.14-28.49-5-5.89-1.14-14.83.89-14.81-7.88,0-2.19,11-6.17,16.9-6.19,18.59-.07,37.2,1.36,56.18,2.23V365.73c-26.14-6.8-52.24-10.16-78.81-7.2a111.55,111.55,0,0,0-25.3,5.88c-18.82,6.8-29.34,20.5-30.49,40.71-1.16,20.43,7.19,35.84,25.7,44.9a122.41,122.41,0,0,0,22.65,8.1c9.32,2.44,19,3.47,28.3,6,2.65.71,4.46,4.48,6.65,6.85-2.26,2-4.23,4.87-6.87,5.83-3.21,1.16-7,1.08-10.52.89-18.94-1-37.87-2.19-58-3.4,0,10.18.42,19.53-.15,28.82-.38,6.36,1.79,9.32,8,10.56,27.34,5.48,54.74,8.76,82.61,4.5,27.61-4.21,45-21.94,46.41-47.67C1536.15,443.65,1523.16,426.61,1494.74,419.23Z"/><path d="M1661,468.76c-9,.44-16.7,1-24.4,1.14-7.32.11-13.54-3.43-13.9-10.74-.84-16.9-.27-33.88-.27-51.77h36.43V361.07h-37.55V328.85H1564.6c-5.07,28.22-5.07,28.22-21.69,34.06v44l11.47,1.64c0,9.92-.27,19.26.07,28.58.52,14.49.23,29.17,2.51,43.42,2.91,18.11,13.13,31.35,31.9,36.32,23,6.07,45.44,3.05,67.6-4,1.86-.58,4.29-3.26,4.34-5C1661.17,494.79,1661,481.67,1661,468.76Z"/></svg>